<svg width="40" height="41" viewBox="0 0 40 41" fill="none" xmlns="http://www.w3.org/2000/svg">
<path d="M13.3689 1.75329C12.661 2.13082 12.2363 2.82296 12.2363 3.59374C12.2363 4.28587 14.0768 9.98025 14.5644 10.814C14.7217 11.0971 15.6813 12.4185 16.688 13.7713C18.67 16.4454 18.8431 16.7286 18.8431 17.1533C18.8431 17.3106 18.3869 18.2859 17.8049 19.2926C16.106 22.3757 16.1374 21.951 17.0183 30.3196C17.8363 38.0431 17.9307 38.4836 18.8745 39.0656C20.0228 39.7577 21.2183 39.6162 22.1307 38.6881C22.9801 37.8072 22.9801 37.6027 22.1307 31.1533C21.47 26.1196 21.3914 25.2859 21.5801 25.0814C21.706 24.9712 21.9105 24.9083 22.0363 24.9555C22.1622 25.0027 22.87 25.9308 23.6251 27.0162C24.5846 28.4005 24.9779 29.1083 24.9779 29.4387C24.9779 29.7061 24.7577 31.4993 24.4902 33.4184C24.2228 35.3533 24.0498 37.1622 24.1127 37.4454C24.3959 39.0184 26.3622 39.8679 27.8093 39.0499C28.8947 38.4364 28.9891 38.0746 29.4768 33.0881C29.7442 30.2881 29.8543 28.3218 29.7914 27.8656C29.697 27.2836 29.2723 26.4814 27.7779 24.2005L25.8902 21.2746L26.3936 18.569C26.661 17.0746 26.9756 15.6432 27.0857 15.3915C27.2116 15.1241 29.0363 12.6701 31.1599 9.91733C33.3936 7.00722 35.0453 4.71059 35.1082 4.44318C35.4857 2.49262 33.0947 1.07689 31.6161 2.38251C31.443 2.52408 29.87 4.49037 28.124 6.7398C26.3622 8.98924 24.8206 10.9241 24.6947 11.0185C24.5217 11.16 23.7824 11.2229 22.288 11.2229H20.1329L19.3464 10.1533C18.2768 8.69037 18.261 8.6589 17.2543 5.43419C16.7667 3.84542 16.2318 2.39824 16.0745 2.2252C15.4139 1.48588 14.2498 1.28138 13.3689 1.75329ZM15.0678 2.72857C15.288 2.83868 15.6655 3.81396 16.3891 6.07913C17.333 8.97351 17.506 9.36677 18.324 10.5151C19.5509 12.214 19.8026 12.3241 22.3037 12.3083C23.3891 12.3083 24.506 12.2297 24.8049 12.1196C25.2453 11.9623 25.9217 11.2072 28.3127 8.15553C32.3239 3.04318 32.4655 2.88588 32.9532 2.88588C33.5037 2.88588 34.1015 3.4679 34.1015 3.987C34.1015 4.28587 33.0475 5.78026 30.2318 9.42969C28.0925 12.1825 26.2678 14.6522 26.1577 14.9196C25.906 15.5016 24.9779 20.4095 24.9779 21.133C24.9779 21.7308 25.2453 22.2027 27.1959 25.1915C27.9666 26.3555 28.6588 27.5825 28.7532 27.8814C28.8475 28.2903 28.7689 29.7375 28.4543 32.978C28.0453 37.1465 27.9824 37.524 27.652 37.8858C27.1801 38.3892 26.5352 38.5151 25.9374 38.2162C24.9779 37.7128 24.9622 37.5712 25.6228 32.7892C25.8745 30.8387 26.0475 29.0769 26.0004 28.8724C25.8902 28.4319 23.1846 24.4679 22.7914 24.169C22.6498 24.0589 22.2723 23.9645 21.9419 23.9645C21.1082 23.9645 20.4161 24.6409 20.4161 25.4589C20.4161 25.7735 20.7307 28.4319 21.124 31.3578C21.5172 34.2836 21.8318 36.8791 21.8318 37.0993C21.8318 37.351 21.6431 37.6971 21.3756 37.9802C20.7622 38.5937 19.9756 38.6094 19.315 37.996L18.8431 37.5712L18.1352 31.0431C17.7419 27.4566 17.4273 24.0746 17.4273 23.5555C17.4273 22.3443 17.679 21.6364 18.8431 19.5443C19.5981 18.2072 19.7869 17.751 19.7869 17.1847C19.7869 16.3038 19.6296 16.0364 17.2858 12.8432L15.3509 10.1847L14.2655 7.05441C13.6678 5.33981 13.1801 3.79823 13.1801 3.65666C13.1801 3.51509 13.3217 3.21621 13.5105 2.98026C13.8566 2.53981 14.5172 2.4297 15.0678 2.72857Z" fill="#25337A"/>
<path d="M21.1243 3.45227C20.4007 3.8298 19.6613 4.61631 19.4568 5.22979C19.0164 6.53541 19.4254 8.07698 20.4007 8.91069C21.0613 9.46125 21.8793 9.69721 22.8703 9.61855C26.0636 9.35114 26.8658 4.96238 24.0029 3.49946C23.2793 3.12193 21.7849 3.1062 21.1243 3.45227ZM23.8456 4.60058C24.4434 5.0253 24.8838 6.07923 24.7422 6.77137C24.6164 7.49496 23.8141 8.3444 23.0748 8.56462C22.2726 8.81631 21.2029 8.42305 20.6995 7.71518C20.2119 7.03878 20.1962 5.76463 20.6681 5.13541C21.4074 4.12867 22.8546 3.87699 23.8456 4.60058Z" fill="#25337A"/>
<path d="M8.4611 13.3309C5.37796 14.5736 5.45661 14.4163 6.49481 17.1534C6.9038 18.2702 7.28133 19.2455 7.31279 19.3399C7.34425 19.4343 7.17122 19.5601 6.91953 19.6073C6.35324 19.7174 5.53526 20.3938 5.23639 20.9916C4.60717 22.1713 5.29931 23.4927 6.542 23.4927C7.65886 23.4927 8.93301 22.2657 8.93301 21.2118C8.93301 20.9286 8.64987 19.9691 8.31953 19.0725C7.97346 18.1758 7.75324 17.3893 7.80043 17.3421C8.05211 17.0904 11.8431 15.6432 11.9218 15.7534C11.9847 15.8163 12.1735 16.2725 12.3622 16.7601L12.6926 17.6567L12.2206 17.7511C10.6791 18.0972 9.76672 20.2522 10.7577 21.2432C11.1195 21.5893 11.2611 21.6365 12.0162 21.5736C12.6926 21.5107 12.9757 21.4005 13.3532 21.0387C13.9667 20.4567 14.2813 19.859 14.2813 19.2927C14.2813 19.0567 13.7465 17.5152 13.1173 15.8635C12.0004 13.0477 11.5757 12.2927 11.0723 12.3399C10.978 12.3556 9.79818 12.7961 8.4611 13.3309ZM11.2768 13.9916C11.3869 14.3062 11.4184 14.605 11.3555 14.668C11.1353 14.8567 7.65886 16.2567 7.43863 16.2567C7.24987 16.2567 6.77796 15.2028 6.91953 15.0927C6.98245 15.0298 10.8836 13.4567 10.978 13.441C11.0409 13.4253 11.1667 13.677 11.2768 13.9916ZM13.1802 19.2612C13.1802 19.8118 12.4409 20.6612 11.9532 20.6612C11.4341 20.6612 11.2296 20.268 11.4499 19.7174C11.7015 19.1196 12.1735 18.7736 12.7397 18.7736C13.133 18.7736 13.1802 18.8365 13.1802 19.2612ZM7.75324 20.7556C8.20942 21.2118 7.56447 22.2657 6.69931 22.4702C5.73976 22.7062 5.8656 21.2904 6.85661 20.7556C7.40717 20.4567 7.43863 20.4567 7.75324 20.7556Z" fill="#25337A"/>
<path d="M30.4991 14.1173C30.3261 14.3218 30.4677 14.7937 31.4587 17.2948L32.6385 20.2364L31.852 20.6453C29.8385 21.6993 29.9171 24.2791 31.9621 24.2791C32.8744 24.2791 33.6137 23.76 34.0857 22.8004C34.5418 21.9038 34.6677 22.4386 32.843 17.9397C32.2137 16.3982 31.7418 15.0925 31.8048 15.0454C31.9935 14.8566 33.3463 15.5173 33.8969 16.0521C34.1958 16.3667 34.5733 16.9173 34.7463 17.2948C35.0452 18.0027 35.1396 18.0656 35.58 17.8925C35.9576 17.751 35.8789 17.2161 35.3598 16.3195C34.5576 14.9195 33.3306 14.133 31.6317 13.96C30.8924 13.8813 30.6722 13.9128 30.4991 14.1173ZM33.252 21.6836C33.5194 22.36 32.434 23.4768 31.7418 23.2566C30.9711 23.0049 31.8205 21.4476 32.7014 21.4476C32.9688 21.4476 33.2048 21.542 33.252 21.6836Z" fill="#25337A"/>
</svg>
