<svg width="24" height="24" viewBox="0 0 24 24" fill="none" xmlns="http://www.w3.org/2000/svg">
<g id="Icon">
<path id="Vector" d="M22.3577 4.7396L4.53859 22.5587C4.27604 22.8212 3.91124 22.96 3.52444 22.9445C3.13765 22.9291 2.65484 22.6548 2.38667 22.3867C1.87465 21.8747 1.61959 21.411 1.60409 21.0242C1.5886 20.6374 1.7274 20.2726 1.98995 20.0101L19.809 2.19096C20.0716 1.92841 20.4364 1.78961 20.8232 1.8051C21.21 1.8206 21.7695 2.17154 22.1857 2.58768C22.4538 2.85585 22.728 3.33866 22.7435 3.72545C22.759 4.11225 22.6202 4.47705 22.3577 4.7396Z" fill="#25337A"/>
<path id="Vector_2" d="M20.2635 22.3546L2.44436 4.53553C2.18181 4.27298 2.04288 3.90832 2.05813 3.52177C2.07338 3.13521 2.34714 2.65286 2.61499 2.38501C3.1264 1.8736 3.58963 1.61897 3.97618 1.60372C4.36273 1.58847 4.7274 1.7274 4.98995 1.98995L22.809 19.809C23.0716 20.0716 23.2105 20.4363 23.1953 20.8228C23.18 21.2094 22.8296 21.7684 22.414 22.184C22.1461 22.4518 21.6638 22.7256 21.2772 22.7409C20.8907 22.7561 20.526 22.6172 20.2635 22.3546Z" fill="#25337A"/>
</g>
</svg>
