<svg width="24" height="25" viewBox="0 0 24 25" fill="none" xmlns="http://www.w3.org/2000/svg">
<g clip-path="url(#clip0_44_350)">
<g clip-path="url(#clip1_44_350)">
<path d="M5.59996 24.4714C5.21901 24.4714 4.88567 24.3 4.59996 23.9571C4.31424 23.6143 4.17139 23.2143 4.17139 22.7571V5.52855H5.59996V22.7571H16.8857V24.4714H5.59996ZM8.4571 21.0428C8.07615 21.0428 7.74282 20.8714 7.4571 20.5285C7.17139 20.1857 7.02853 19.7857 7.02853 19.3285V3.32855C7.02853 2.8714 7.17139 2.4714 7.4571 2.12855C7.74282 1.78569 8.07615 1.61426 8.4571 1.61426H18.9333C19.3142 1.61426 19.6476 1.78569 19.9333 2.12855C20.219 2.4714 20.3619 2.8714 20.3619 3.32855V19.3285C20.3619 19.7857 20.219 20.1857 19.9333 20.5285C19.6476 20.8714 19.3142 21.0428 18.9333 21.0428H8.4571ZM8.4571 19.3285H18.9333V3.32855H8.4571V19.3285Z" fill="white"/>
</g>
</g>
<defs>
<clipPath id="clip0_44_350">
<rect width="24" height="24" fill="white" transform="translate(0 0.5)"/>
</clipPath>
<clipPath id="clip1_44_350">
<rect width="17.1429" height="24" fill="white" transform="translate(3.6001 0.5)"/>
</clipPath>
</defs>
</svg>
