<svg width="25" height="24" viewBox="0 0 25 24" fill="none" xmlns="http://www.w3.org/2000/svg">
<g clip-path="url(#clip0_21_263)">
<path fill-rule="evenodd" clip-rule="evenodd" d="M22.4625 2.02294C23.8706 3.42605 24.3097 5.12906 24.4007 7.05165C24.5131 9.03314 24.5131 14.9669 24.4007 16.9484C24.3043 18.871 23.8653 20.574 22.4625 21.9771C21.0597 23.3856 19.357 23.8247 17.4349 23.9158C15.4538 24.0282 9.51602 24.0282 7.53497 23.9158C5.61281 23.8194 3.91553 23.3802 2.50738 21.9771C1.09923 20.574 0.660183 18.871 0.569161 16.9484C0.456723 14.9669 0.456723 9.02779 0.569161 7.04629C0.665537 5.12371 1.09923 3.42069 2.50738 2.01758C3.91553 0.61447 5.61817 0.175328 7.53497 0.0842863C9.51602 -0.0281768 15.4538 -0.0281768 17.4349 0.0842863C19.357 0.180683 21.0597 0.619825 22.4625 2.02294ZM19.5606 21.3558C20.6153 20.9327 21.4238 20.124 21.8415 19.0744C22.3788 17.7239 22.3489 14.7699 22.3295 12.855C22.3263 12.5374 22.3233 12.2483 22.3233 11.9999C22.3233 11.7516 22.3263 11.4627 22.3295 11.1453L22.3295 11.1449C22.3489 9.23106 22.3787 6.28047 21.8415 4.92545C21.4185 3.87044 20.61 3.06177 19.5606 2.64405C18.2062 2.10954 15.2385 2.13801 13.3246 2.15638C13.0141 2.15936 12.7313 2.16207 12.4877 2.16207C12.2393 2.16207 11.9504 2.15914 11.6329 2.15592C9.71943 2.13653 6.76951 2.10664 5.41479 2.64405C4.36001 3.06713 3.55153 3.87579 3.1339 4.92545C2.59951 6.28016 2.62797 9.2485 2.64633 11.1628C2.64931 11.4734 2.65202 11.7562 2.65202 11.9999C2.65202 12.2484 2.6491 12.5374 2.64588 12.8549C2.62649 14.7688 2.59661 17.7194 3.1339 19.0744C3.55688 20.1294 4.36537 20.9381 5.41479 21.3558C6.7692 21.8903 9.73688 21.8618 11.6508 21.8435C11.9613 21.8405 12.244 21.8378 12.4877 21.8378C12.7361 21.8378 13.025 21.8407 13.3425 21.8439C15.2559 21.8633 18.2058 21.8932 19.5606 21.3558ZM16.2051 9.95519L15.7708 12.9082H13.4896V20.047H10.4302V12.9082H7.94447V9.95519H10.4302V7.70457C10.4302 5.14418 11.892 3.72981 14.1282 3.72981C15.1993 3.72981 16.3196 3.92931 16.3196 3.92931V6.44349H15.0851C13.8689 6.44349 13.4896 7.23099 13.4896 8.03888V9.95519H16.2051Z" fill="currentColor"/>
</g>
<defs>
<clipPath id="clip0_21_263">
<rect width="24" height="24" fill="white" transform="translate(0.484863)"/>
</clipPath>
</defs>
</svg>
