<svg width="32" height="32" viewBox="0 0 32 32" fill="none" xmlns="http://www.w3.org/2000/svg">
<g id="Icon">
<path id="Vector" d="M1.6 10.4686H30.4C30.8243 10.4686 31.2313 10.3001 31.5314 10C31.8314 9.69994 32 9.1353 32 8.73526C32 8.11446 31.8314 7.43536 31.5314 7.1353C31.2313 6.83524 30.8243 6.66667 30.4 6.66667H1.6C1.17565 6.66667 0.768687 6.83524 0.468629 7.1353C0.168571 7.43536 0 7.97144 0 8.73526C0 9.1353 0.168571 9.69994 0.468629 10C0.768687 10.3001 1.17565 10.4686 1.6 10.4686ZM30.4 22.6667H1.6C1.17565 22.6667 0.768687 22.8352 0.468629 23.1353C0.168571 23.4354 0 24.1441 0 24.7353C0 25.2527 0.168571 25.6999 0.468629 26C0.768687 26.3001 1.17565 26.4686 1.6 26.4686H30.4C30.8243 26.4686 31.2313 26.3001 31.5314 26C31.8314 25.6999 32 25.1353 32 24.7353C32 24.0103 31.8314 23.4354 31.5314 23.1353C31.2313 22.8352 30.8243 22.6667 30.4 22.6667ZM30.4 14.8064H9.6C9.17565 14.8064 8.76869 14.975 8.46863 15.2751C8.16857 15.5751 8 16.0521 8 16.7353C8 17.3147 8.16857 17.6999 8.46863 18C8.76869 18.3001 9.17565 18.4686 9.6 18.4686H30.4C30.8243 18.4686 31.2313 18.3001 31.5314 18C31.8314 17.6999 32 17.1353 32 16.7353C32 15.802 31.8314 15.5751 31.5314 15.2751C31.2313 14.975 30.8243 14.8064 30.4 14.8064Z" fill="#25337A"/>
</g>
</svg>
