<svg width="25" height="24" viewBox="0 0 25 24" fill="none" xmlns="http://www.w3.org/2000/svg">
<path d="M12.4875 5.8467C9.0823 5.8467 6.33562 8.594 6.33562 12C6.33562 15.406 9.0823 18.1533 12.4875 18.1533C15.8928 18.1533 18.6395 15.406 18.6395 12C18.6395 8.594 15.8928 5.8467 12.4875 5.8467ZM12.4875 16.0004C10.287 16.0004 8.48799 14.2064 8.48799 12C8.48799 9.7936 10.2816 7.99955 12.4875 7.99955C14.6935 7.99955 16.4871 9.7936 16.4871 12C16.4871 14.2064 14.6881 16.0004 12.4875 16.0004ZM20.326 5.595C20.326 6.39295 19.6835 7.03024 18.8911 7.03024C18.0933 7.03024 17.4562 6.38759 17.4562 5.595C17.4562 4.80241 18.0987 4.15977 18.8911 4.15977C19.6835 4.15977 20.326 4.80241 20.326 5.595ZM24.4005 7.05166C24.3095 5.12909 23.8705 3.42608 22.4623 2.02298C21.0595 0.619882 19.3569 0.180743 17.4348 0.0843467C15.4537 -0.0281156 9.51598 -0.0281156 7.53495 0.0843467C5.61816 0.175388 3.91554 0.614526 2.5074 2.01763C1.09925 3.42073 0.665566 5.12373 0.569191 7.0463C0.456754 9.02778 0.456754 14.9669 0.569191 16.9483C0.660212 18.8709 1.09925 20.5739 2.5074 21.977C3.91554 23.3801 5.6128 23.8193 7.53495 23.9157C9.51598 24.0281 15.4537 24.0281 17.4348 23.9157C19.3569 23.8246 21.0595 23.3855 22.4623 21.977C23.8651 20.5739 24.3042 18.8709 24.4005 16.9483C24.513 14.9669 24.513 9.03314 24.4005 7.05166ZM21.8412 19.0744C21.4236 20.1241 20.6151 20.9327 19.5604 21.3558C17.9809 21.9824 14.233 21.8378 12.4875 21.8378C10.7421 21.8378 6.98882 21.977 5.4147 21.3558C4.36529 20.9381 3.55681 20.1294 3.13383 19.0744C2.5074 17.4946 2.65196 13.7458 2.65196 12C2.65196 10.2542 2.51275 6.50006 3.13383 4.92558C3.55146 3.87593 4.35993 3.06728 5.4147 2.6442C6.99418 2.01763 10.7421 2.16222 12.4875 2.16222C14.233 2.16222 17.9863 2.02298 19.5604 2.6442C20.6098 3.06192 21.4183 3.87058 21.8412 4.92558C22.4677 6.50541 22.3231 10.2542 22.3231 12C22.3231 13.7458 22.4677 17.4999 21.8412 19.0744Z" fill="#070A18"/>
</svg>
