<svg width="40" height="40" viewBox="0 0 40 40" fill="none" xmlns="http://www.w3.org/2000/svg">
<path d="M18.1743 1.07267C17.0504 1.1677 14.4862 1.7537 13.3781 2.16547C8.09131 4.14519 4.43485 8.19964 2.9786 13.6795C2.5354 15.3424 2.26631 17.433 2.26631 19.2068C2.26631 20.1571 2.18716 20.553 1.94973 20.949C1.75978 21.2816 1.63315 21.7567 1.63315 22.216C1.63315 22.6911 1.52235 23.1663 1.31658 23.483C1.01583 23.9898 1 24.2907 1 30.705C1 38.1012 1 38.0537 1.99722 38.6555C2.74117 39.1148 5.59036 39.1148 6.33431 38.6555C7.33153 38.0537 7.33153 38.1012 7.33153 30.705C7.33153 24.2907 7.3157 23.9898 7.01495 23.483C6.80918 23.1663 6.69838 22.6911 6.69838 22.216C6.69838 21.7567 6.57174 21.2816 6.3818 20.949C6.12854 20.5214 6.06522 20.1571 6.06522 18.8901C6.06522 17.0054 6.25517 15.7542 6.84083 13.9804L7.26821 12.6025L7.37901 14.1071C7.52147 16.1502 7.96468 17.7814 8.86692 19.5394C9.46842 20.7273 9.87997 21.2657 11.1304 22.5011C12.3651 23.7523 12.9033 24.164 14.0904 24.7659C16.2273 25.8587 17.5728 26.1913 19.9946 26.1913C22.4164 26.1913 23.7618 25.8587 25.8987 24.7659C27.0859 24.164 27.6241 23.7523 28.8587 22.5011C30.1092 21.2657 30.5208 20.7273 31.1222 19.5394C32.0245 17.7814 32.4677 16.1343 32.6102 14.1071L32.7051 12.6184L32.9426 13.236C33.5599 14.9465 33.7815 16.1818 33.8765 18.2249C33.9556 20.2205 33.9398 20.4105 33.6232 20.9173C33.4174 21.2816 33.2908 21.7409 33.2908 22.216C33.2908 22.6911 33.18 23.1663 32.9742 23.483C32.6735 23.9898 32.6576 24.2907 32.6576 30.705C32.6576 38.1012 32.6576 38.0537 33.6549 38.6555C34.3988 39.1148 37.248 39.1148 37.992 38.6555C38.9892 38.0537 38.9892 38.1012 38.9892 30.705C38.9892 24.2907 38.9733 23.9898 38.6726 23.483C38.4668 23.1663 38.356 22.6911 38.356 22.216C38.356 21.7567 38.2294 21.2816 38.0394 20.949C37.7862 20.553 37.7229 20.1571 37.7229 19.1276C37.707 15.1999 36.6307 11.3513 34.6837 8.40553C33.829 7.091 31.7712 5.01626 30.4574 4.12935C27.0068 1.81705 22.4955 0.69257 18.1743 1.07267ZM23.0021 2.62477C26.1203 3.59087 28.7004 5.71312 30.2042 8.59558C31.8187 11.6681 31.7871 15.6275 30.0934 18.9218C29.5868 19.9037 29.0962 20.553 28.004 21.6458C26.7851 22.8653 26.3419 23.1979 25.0598 23.8314C21.7041 25.4627 18.016 25.4311 14.7078 23.7364C12.9033 22.802 10.8297 20.7273 9.8958 18.9218C8.20211 15.6275 8.17046 11.6681 9.785 8.57974C11.3204 5.66561 14.1537 3.40081 17.367 2.52974C18.7441 2.14964 21.625 2.19715 23.0021 2.62477ZM10.1965 5.72896C9.76917 6.2516 9.1835 7.12267 8.89858 7.66116C8.61366 8.19964 8.05965 9.07071 7.67976 9.59336C6.01774 11.8581 5.02052 14.8831 4.8464 18.0982L4.75143 19.967H4.13411H3.53261V18.5733C3.53261 13.4419 5.71699 8.73812 9.43676 5.79231C10.1491 5.22215 10.7822 4.76286 10.8455 4.76286C10.9088 4.76286 10.6239 5.19048 10.1965 5.72896ZM29.8559 5.22215C33.9081 8.02542 36.4566 13.1727 36.4566 18.5575V19.967H35.8551H35.2377L35.1428 18.0982C34.9686 14.8831 33.9714 11.8423 32.3094 9.59336C31.9137 9.07071 31.3438 8.13629 31.0273 7.53445C30.7107 6.91679 30.1092 6.04571 29.7135 5.58642C29.3178 5.14296 29.0328 4.76286 29.0962 4.76286C29.1436 4.76286 29.4919 4.96875 29.8559 5.22215ZM5.24212 21.4241C5.35293 21.535 5.43207 21.8201 5.43207 22.0576V22.5011H4.16576H2.89946V22.0576C2.89946 21.4083 3.16855 21.2341 4.16576 21.2341C4.65646 21.2341 5.13132 21.3133 5.24212 21.4241ZM36.8998 21.4241C37.0106 21.535 37.0897 21.8201 37.0897 22.0576V22.5011H35.8234H34.5571V22.0576C34.5571 21.4083 34.8262 21.2341 35.8234 21.2341C36.3141 21.2341 36.789 21.3133 36.8998 21.4241ZM5.87528 23.9581C6.00191 24.0848 6.06522 24.8134 6.06522 26.1754V28.2027H4.16576H2.26631V26.1754C2.26631 24.8134 2.32962 24.0848 2.45625 23.9581C2.58288 23.8314 3.20021 23.7681 4.16576 23.7681C5.13132 23.7681 5.74865 23.8314 5.87528 23.9581ZM37.5329 23.9581C37.6595 24.0848 37.7229 24.8134 37.7229 26.1754V28.2027H35.8234H33.9239V26.1754C33.9239 24.8134 33.9873 24.0848 34.1139 23.9581C34.2405 23.8314 34.8578 23.7681 35.8234 23.7681C36.789 23.7681 37.4063 23.8314 37.5329 23.9581ZM6.06522 30.4199V31.3702H4.16576H2.26631V30.4199V29.4697H4.16576H6.06522V30.4199ZM37.7229 30.4199V31.3702H35.8234H33.9239V30.4199V29.4697H35.8234H37.7229V30.4199ZM6.06522 34.9812C6.06522 36.5966 6.00191 37.3885 5.87528 37.5152C5.62202 37.7686 2.70951 37.7686 2.45625 37.5152C2.32962 37.3885 2.26631 36.5966 2.26631 34.9812V32.6372H4.16576H6.06522V34.9812ZM37.7229 34.9812C37.7229 36.5966 37.6595 37.3885 37.5329 37.5152C37.2797 37.7686 34.3672 37.7686 34.1139 37.5152C33.9873 37.3885 33.9239 36.5966 33.9239 34.9812V32.6372H35.8234H37.7229V34.9812Z" fill="#25337A"/>
<path d="M18.0479 3.74927C13.1568 4.8104 9.57946 9.41917 9.9277 14.2497C10.2443 18.4467 12.8719 21.8359 16.9082 23.2296C18.0004 23.6097 18.4278 23.6731 19.9948 23.6731C21.5619 23.6731 21.9893 23.6097 23.0814 23.2296C26.2947 22.121 28.4949 19.9196 29.5871 16.7203C29.9512 15.6434 30.0145 15.1841 30.0303 13.7112C30.0303 12.4758 29.9512 11.6998 29.7454 11.0188C28.6374 7.31275 25.5982 4.52532 21.8468 3.74927C20.3905 3.44836 19.4725 3.44836 18.0479 3.74927ZM22.0526 5.00045C24.3636 5.61812 26.7854 7.53448 27.8776 9.60922C30.9009 15.4058 26.5638 22.5011 19.9948 22.5011C14.3281 22.5011 9.95936 16.9262 11.3681 11.4939C12.1596 8.48474 14.9771 5.71315 17.9846 4.98461C19.1084 4.71537 21.0079 4.71537 22.0526 5.00045Z" fill="#25337A"/>
</svg>
