<svg width="40" height="41" viewBox="0 0 40 41" fill="none" xmlns="http://www.w3.org/2000/svg">
<path d="M26.9066 1.66516C25.9551 1.87329 24.6618 2.42335 24.1266 2.82474C23.859 3.03287 23.7995 3.018 23.3387 2.61661C22.7886 2.12602 22.5359 2.08142 22.2088 2.42335C21.8669 2.76527 21.9115 3.27073 22.3426 3.67212L22.6994 4.01405L22.2534 4.57896C21.5993 5.41148 20.96 6.74945 20.7817 7.68603C20.6925 8.13202 20.5587 8.68208 20.4992 8.8902C20.4249 9.09833 17.2583 13.2609 13.4525 18.1371C7.01542 26.373 6.21264 27.4285 6.21264 27.6813C6.21264 27.7259 6.55457 28.1421 6.98569 28.5881L7.75874 29.4058L6.16804 30.9965C5.18686 31.9925 4.47328 32.8399 4.29488 33.2561C3.72996 34.5049 3.99756 36.2443 4.91927 37.2552C5.45446 37.835 6.6289 38.3107 7.55061 38.3107C8.91831 38.2958 9.43864 37.9539 12.3078 35.1293C15.0432 32.4088 15.3257 32.2304 16.3961 32.4236C17.6895 32.6763 18.4476 34.1184 17.957 35.4118C17.8827 35.6199 17.2137 36.4227 16.4704 37.1809C15.742 37.939 15.1324 38.6675 15.1324 38.7864C15.1324 39.054 15.5933 39.5 15.8758 39.5C16.1582 39.5 18.8342 36.8241 19.1464 36.2145C20.3803 33.8359 18.6558 30.9965 15.965 30.9816C14.5824 30.9667 14.0621 31.3235 11.1185 34.2224C9.02238 36.2889 8.41286 36.8092 7.9966 36.8835C6.42077 37.166 5.05307 35.7091 5.45446 34.1778C5.57339 33.7765 6.03424 33.2115 7.22355 32.0222L8.82912 30.4315L9.55757 31.1748C10.063 31.6803 10.4049 31.9182 10.6725 31.9182C10.9401 31.9182 13.6012 29.8815 20.0532 24.7972C28.0364 18.5087 29.1365 17.6762 29.7163 17.587C30.9056 17.4086 32.2436 16.8734 33.2248 16.2044L34.1762 15.5503L34.6965 16.0112C35.2912 16.5315 35.3209 16.5315 35.7669 16.2193C36.2129 15.9071 36.1832 15.5206 35.648 14.9259L35.2169 14.4205L35.7818 13.2758C38.4429 7.99822 34.9344 1.87329 29.0622 1.5165C28.2892 1.4719 27.5012 1.5165 26.9066 1.66516ZM30.5786 3.21126C34.4736 4.41544 36.3318 8.69694 34.5925 12.4284L34.1465 13.3947L32.4071 11.6553C31.2624 10.5106 30.5488 9.91598 30.3407 9.91598C29.969 9.91598 29.5528 10.2876 29.5528 10.6147C29.5528 10.7485 30.3556 11.6702 31.3516 12.6663L33.1504 14.4948L32.645 14.8665C31.9314 15.4165 30.6083 15.9963 29.8353 16.1004L29.1811 16.1747L25.5537 12.5325L21.9115 8.8902L22.1791 7.95362C22.4615 6.91298 23.0562 5.75341 23.4873 5.35202C23.7549 5.11415 23.7995 5.14389 24.6915 6.00613C25.7619 7.04678 25.9849 7.15084 26.416 6.85352C26.9214 6.49672 26.7877 6.08047 25.8362 5.09929C25.3456 4.57896 24.9442 4.11811 24.9442 4.07351C24.9442 3.92485 26.1335 3.34506 26.8769 3.13693C27.9026 2.85447 29.5379 2.8842 30.5786 3.21126ZM24.632 13.692L27.7986 16.8586L20.7965 22.3888C16.9461 25.4216 13.735 27.9043 13.6755 27.9043C13.6161 27.9043 12.8133 27.1461 11.9064 26.2244L10.2414 24.5593L15.742 17.5275C18.7598 13.6772 21.2871 10.5106 21.3466 10.5106C21.406 10.5106 22.8778 11.9378 24.632 13.692ZM10.9401 27.3542L12.4862 28.9003L11.7578 29.495C11.3713 29.822 10.955 30.1342 10.8361 30.2085C10.7023 30.2829 10.2414 29.9112 9.3197 29.0044C8.59125 28.2759 7.9966 27.6367 7.9966 27.5623C7.9966 27.4137 9.21564 25.823 9.33457 25.823C9.37917 25.823 10.1076 26.5217 10.9401 27.3542Z" fill="#25337A"/>
<path d="M27.7835 7.92382C27.3376 8.23601 27.3822 8.83066 27.8579 9.05366C28.3931 9.30639 28.735 9.05366 28.735 8.42927C28.735 7.83462 28.2741 7.58189 27.7835 7.92382Z" fill="#25337A"/>
<path d="M20.0681 15.1193C19.0869 15.818 18.5518 16.6654 18.5518 17.483C18.5518 18.7615 19.3843 19.6238 20.633 19.6386C21.4804 19.6535 22.3724 19.0886 23.086 18.0925C24.1712 16.5762 23.2198 14.6733 21.3615 14.6733C20.8412 14.6733 20.529 14.7773 20.0681 15.1193ZM21.8521 16.264C22.2535 16.6356 22.1791 17.0519 21.5696 17.6763C20.9601 18.3007 20.5141 18.3899 20.1276 17.9587C19.7708 17.5722 19.9195 17.2006 20.633 16.5464C21.302 15.9369 21.4656 15.9072 21.8521 16.264Z" fill="#25337A"/>
<path d="M16.2773 4.3858C16.1286 4.53446 16.0246 4.87639 16.0246 5.12912C16.0246 5.57511 15.9948 5.60484 15.5191 5.60484C15.1623 5.60484 14.9393 5.7089 14.7758 5.91703C14.4339 6.40762 14.6866 6.83874 15.4002 7.00227C15.9205 7.12121 16.0246 7.2104 16.0246 7.50773C16.0246 8.10238 16.2922 8.42944 16.7679 8.42944C17.2436 8.42944 17.5112 8.08752 17.5112 7.49286C17.5112 7.18067 17.6004 7.12121 18.1059 7.03201C18.8492 6.91308 19.1316 6.49682 18.7748 5.96163C18.6113 5.69404 18.4181 5.60484 18.0315 5.60484C17.5409 5.60484 17.5112 5.57511 17.5112 5.11425C17.5112 4.26687 16.7679 3.83574 16.2773 4.3858Z" fill="#25337A"/>
<path d="M8.24932 7.06171C8.10066 7.21037 7.9966 7.53743 7.9966 7.7753C7.9966 8.02802 7.8182 8.57808 7.61007 9.0092C7.13435 9.94578 6.2721 10.5702 5.20172 10.7337C4.36921 10.8526 4.13135 11.0162 4.13135 11.477C4.13135 11.9379 4.36921 12.1014 5.20172 12.2203C6.2721 12.3839 7.13435 13.0082 7.61007 13.9448C7.8182 14.376 7.9966 14.9409 7.9966 15.1936C7.9966 15.6842 8.36825 16.1599 8.76965 16.1599C9.11157 16.1599 9.48323 15.6545 9.48323 15.1787C9.4981 14.5692 9.94409 13.6326 10.5387 13.0677C10.9847 12.6217 12.1443 12.146 12.7538 12.146C13.0809 12.146 13.3485 11.8487 13.3485 11.4621C13.3485 11.0162 13.0958 10.8526 12.2781 10.7337C10.8361 10.5107 9.48323 9.06867 9.48323 7.76043C9.48323 6.94278 8.72505 6.52652 8.24932 7.06171ZM9.43863 10.7932L10.0482 11.477L9.39403 12.1757L8.73991 12.8745L8.08579 12.1757L7.43168 11.477L8.0412 10.7932C8.38312 10.4066 8.69531 10.0944 8.73991 10.0944C8.78451 10.0944 9.09671 10.4066 9.43863 10.7932Z" fill="#25337A"/>
<path d="M31.0246 23.1916C29.092 23.8606 27.4121 24.4998 27.2783 24.6188C27.0553 24.7972 27.0256 25.2283 27.0256 27.9637V31.1005H26.089C23.3685 31.1302 21.7926 34.1184 23.9334 35.2036C24.9889 35.7388 26.4607 35.5009 27.4864 34.6238C28.4825 33.7764 28.5122 33.598 28.5122 29.3463V25.5702L30.6381 24.8566C31.7977 24.4701 33.0613 24.0241 33.4627 23.8755L34.1614 23.593V26.0905V28.5881H33.3735C32.4072 28.6029 31.426 29.0341 30.757 29.7328C29.8502 30.6991 29.984 32.2006 31.0246 32.7209C32.0653 33.2412 33.4776 33.0777 34.5033 32.3047C35.6332 31.4573 35.6481 31.3681 35.6481 26.5514C35.6481 22.032 35.6332 21.9428 34.9196 21.9726C34.6966 21.9726 32.9572 22.5226 31.0246 23.1916ZM33.9236 30.0747C34.4736 30.2828 33.9533 31.1302 33.0762 31.4573C32.5113 31.6803 32.0504 31.6654 31.7085 31.4127C31.4409 31.2194 31.4409 31.1897 31.6639 30.8478C32.095 30.2085 33.2397 29.8071 33.9236 30.0747ZM26.9661 32.7209C27.085 33.048 26.7728 33.5237 26.2525 33.7913C25.6727 34.0886 24.7213 34.1332 24.4834 33.8954C24.2158 33.6278 24.5726 33.0331 25.1524 32.7507C25.7471 32.4533 26.862 32.4385 26.9661 32.7209Z" fill="#25337A"/>
</svg>
