<svg width="40" height="40" viewBox="0 0 40 40" fill="none" xmlns="http://www.w3.org/2000/svg">
<path d="M12.8702 1.12986C11.103 1.50113 9.43964 2.83772 8.8456 4.35253C8.38522 5.55546 8.37037 7.30788 8.83075 8.31775C9.00896 8.71873 9.15747 9.0603 9.15747 9.07516C9.15747 9.09001 8.905 9.14941 8.60798 9.20881C8.29611 9.25337 7.64267 9.52069 7.15258 9.788C6.21697 10.2929 5.9645 10.7088 6.35063 11.1692C6.58824 11.4513 7.00407 11.3919 8.20701 10.8721C8.71194 10.6642 9.5733 10.4415 10.1376 10.382C11.0733 10.2781 11.1624 10.2335 11.296 9.84741C11.4297 9.50583 11.3851 9.38703 10.9841 8.95635C9.87032 7.81282 9.58815 6.1198 10.2862 4.7238C10.9693 3.34266 12.1871 2.60011 13.9247 2.49615C15.5583 2.40704 16.6127 2.73376 17.4889 3.63968C18.6473 4.84261 18.5879 3.9961 18.5879 19.9907C18.5879 35.9852 18.6473 35.1387 17.4889 36.3416C15.6325 38.2574 11.7416 37.7822 10.3901 35.4803C9.5733 34.0694 9.81092 32.0348 10.9247 31.0398C11.4 30.624 11.5188 30.0894 11.2069 29.822C11.103 29.7329 10.5238 29.5993 9.94458 29.525C7.99909 29.2577 6.46944 28.3221 5.45957 26.8073C4.31604 25.0994 4.12297 22.9757 4.91008 21.0005C5.11799 20.4659 5.2962 19.9758 5.2962 19.8867C5.2962 19.7976 5.13284 19.3669 4.92493 18.9362C4.73187 18.4907 4.52395 17.7333 4.46455 17.2432C4.33089 16.1145 4.18238 15.8324 3.73685 15.8324C3.09825 15.8324 2.87549 16.3819 3.06855 17.5402C3.15766 18.0749 3.35072 18.862 3.51408 19.263C3.7814 19.9907 3.7814 20.0204 3.49923 20.6441C3.06855 21.6243 2.89034 23.2133 3.06855 24.4757C3.45468 27.2677 5.62293 29.8369 8.25156 30.6091L9.12777 30.8765L8.8159 31.5596C8.32581 32.6289 8.38522 34.4853 8.91986 35.6734C9.97428 38.005 12.5732 39.3119 15.3207 38.8812C17.3701 38.5693 18.6324 37.6931 19.4344 36.0595L19.9245 35.0645L19.969 20.4362C19.9987 10.5009 19.9542 5.57031 19.8502 5.05053C19.5086 3.40206 18.1423 1.88726 16.5236 1.36747C15.588 1.0556 13.7761 0.951641 12.8702 1.12986Z" fill="#25337A"/>
<path d="M22.479 1.18928C22.1225 1.5457 22.1077 4.41195 22.4641 4.75352C22.7314 5.03569 22.8799 5.05054 23.2809 4.84263C23.5185 4.70897 23.5631 4.51591 23.5631 3.55059V2.42191L24.6324 2.52587C29.6817 3.0308 33.6469 5.77825 35.2657 9.89198C35.934 11.6296 36.0974 12.5355 36.0974 14.8671C36.0974 17.3175 35.934 18.2086 35.132 19.9758C34.3746 21.6243 32.9044 23.3322 31.2559 24.4608L30.4094 25.04H28.4045H26.3848V20.956V16.872H27.6026C29.1619 16.872 29.949 16.5304 30.5431 15.5799C31.2708 14.4364 31.2708 13.278 30.5282 12.1939C29.9639 11.3771 29.2807 11.0207 28.1818 10.9613C26.9046 10.887 26.0581 11.3028 25.4343 12.3276C25.063 12.9216 24.9888 13.2186 24.9294 14.2879L24.8551 15.5502L24.2462 15.5057L23.6373 15.4611L23.5928 13.0255C23.5779 11.5256 23.4888 10.5009 23.3997 10.3821C23.1918 10.1444 22.6423 10.1296 22.4047 10.3672C22.271 10.5009 22.2265 13.8572 22.2265 24.5351C22.2265 37.0694 22.2562 38.5545 22.4641 38.7624C22.6275 38.9257 22.969 39 23.6225 39C25.4789 39 26.7264 38.3169 27.3352 36.9506C27.5432 36.4753 27.7065 36.3268 27.959 36.3268C28.2115 36.3268 28.7164 35.8664 29.8005 34.6635L31.2856 32.9853V29.5696V26.1539L31.9836 25.7083C32.3697 25.4707 33.1123 24.8767 33.6321 24.3866C36.5726 21.6243 37.9686 17.7185 37.5231 13.4265C36.7954 6.17922 31.8797 1.67936 23.9938 1.04077C22.9096 0.966511 22.6869 0.981361 22.479 1.18928ZM28.6867 12.4761C29.5481 12.8473 29.9193 14.0354 29.4144 14.778C29.058 15.2681 28.3154 15.5354 27.2758 15.5354H26.3848V14.4512C26.3848 13.2335 26.5927 12.8028 27.3352 12.4761C27.9293 12.2236 28.0629 12.2236 28.6867 12.4761ZM24.8997 20.9708V25.0549L24.2759 25.0103L23.6373 24.9658L23.5928 21.1045C23.5779 18.9808 23.5928 17.169 23.6373 17.065C23.667 16.9462 23.9492 16.872 24.3056 16.872H24.8997V20.9708ZM29.7114 26.6588C29.5481 26.8073 24.1126 28.4558 23.7859 28.4558C23.6076 28.4558 23.5631 28.2479 23.5631 27.4905V26.5251H26.7115C28.4788 26.5251 29.8005 26.5845 29.7114 26.6588ZM29.6966 30.6834C29.5481 30.8171 24.068 32.4655 23.771 32.4655C23.5928 32.4655 23.5631 32.2576 23.5928 31.2626L23.6373 30.0597L26.6818 29.1241L29.7263 28.2033L29.7708 29.3914C29.8005 30.0448 29.756 30.624 29.6966 30.6834ZM28.7906 33.6239L27.7659 34.7675L25.6571 34.812L23.5482 34.8566L23.5928 34.4556C23.6373 34.0843 23.771 34.0249 26.6818 33.1338C28.36 32.6289 29.756 32.2725 29.7857 32.3467C29.8005 32.421 29.3698 33.0002 28.7906 33.6239ZM25.9393 36.6387C25.6719 37.1139 24.8848 37.5149 24.2017 37.5149H23.5631V36.9209V36.3268H24.8254C26.0581 36.3268 26.0878 36.3417 25.9393 36.6387Z" fill="#25337A"/>
<path d="M22.4047 7.1C22.167 7.33762 22.1819 7.88711 22.4344 8.09502C22.5532 8.19898 22.8353 8.25838 23.073 8.22868C23.8304 8.13958 23.6819 6.92179 22.9096 6.92179C22.7314 6.92179 22.5086 6.99605 22.4047 7.1Z" fill="#25337A"/>
<path d="M12.7962 12.1642C12.4992 12.6395 12.6922 13.1147 13.2417 13.2335C13.4497 13.2781 13.7764 13.3375 13.9694 13.382C14.5189 13.5008 15.2169 14.2879 15.3357 14.9117C15.4842 15.7582 15.6476 15.981 16.1377 15.981C16.6872 15.981 16.9248 15.5651 16.7911 14.8226C16.509 13.2484 15.2912 12.09 13.7021 11.8821C13.1229 11.793 13.019 11.8227 12.7962 12.1642Z" fill="#25337A"/>
<path d="M4.37552 12.3869C4.0785 12.4463 3.87059 13.0255 4.00425 13.3819C4.13791 13.6938 4.8062 13.8275 5.08837 13.5898C5.40025 13.3225 5.29629 12.5503 4.92501 12.4166C4.76165 12.3721 4.50918 12.3424 4.37552 12.3869Z" fill="#25337A"/>
<path d="M11.6826 18.7877C11.6083 18.951 11.5341 19.2481 11.5341 19.4708C11.5341 20.8371 9.87076 22.5004 8.47477 22.5153C7.67281 22.5153 7.22728 23.1242 7.62826 23.7034C7.83617 24.0004 7.95498 24.0301 8.65298 23.9558C10.7767 23.7331 12.4103 22.2034 12.8855 20.0055C13.1083 18.9659 12.9152 18.5055 12.2915 18.5055C11.9945 18.5055 11.7865 18.6095 11.6826 18.7877Z" fill="#25337A"/>
<path d="M12.7222 27.4162C12.4846 27.8617 12.6776 28.2924 13.138 28.3964C14.3112 28.6488 14.9498 29.1983 14.9498 29.9557C14.9498 30.728 15.7072 31.0993 16.2122 30.5795C16.8211 29.9854 15.9448 28.0697 14.8162 27.4608C13.9697 27.0152 12.9449 27.0004 12.7222 27.4162Z" fill="#25337A"/>
</svg>
