<svg width="40" height="40" viewBox="0 0 40 40" fill="none" xmlns="http://www.w3.org/2000/svg">
<path d="M8.20283 1.15773C7.33873 1.48549 6.53424 2.06652 6.17668 2.63265C5.68504 3.43715 2.31807 12.8379 2.15419 13.9105C1.93072 15.2365 1.94561 15.9665 2.22868 17.2924C2.54154 18.8418 2.91399 19.6016 4.96993 22.9984C7.42812 27.0358 8.30711 27.7956 10.5567 27.8254C11.4804 27.8403 11.9869 27.7062 14.8772 26.7378C18.9891 25.3672 20.2107 24.7564 21.5813 23.3708C22.9818 21.9704 23.4138 21.0914 25.4549 15.4748C26.9596 11.348 27.1681 10.6627 27.1681 9.84334C27.1532 8.29393 26.3785 7.11698 24.9334 6.47636C22.8775 5.58247 10.1694 1.06834 9.51386 1.00875C9.08181 0.978954 8.53058 1.02365 8.20283 1.15773ZM17.0672 4.70349C21.1642 6.1784 24.7248 7.54903 24.9632 7.71291C25.7081 8.21944 26.021 8.75577 26.0955 9.64966C26.1551 10.3946 26.021 10.8415 24.4865 15.0577C23.5628 17.5755 22.654 19.9741 22.4454 20.3763C21.626 22.0449 20.3746 23.341 18.7656 24.1455C17.8419 24.6223 11.9572 26.6484 11.1229 26.7974C10.1545 26.9464 8.94773 26.5441 8.15813 25.7843C7.29404 24.95 3.88237 19.2738 3.49502 18.0373C3.10767 16.7412 2.98848 15.3556 3.16726 14.1936C3.34604 13.1209 6.59383 4.01817 7.08547 3.21367C7.47282 2.57305 8.45609 2.03672 9.26059 2.00692C9.45427 1.99203 12.9702 3.21367 17.0672 4.70349Z" fill="#25337A"/>
<path d="M8.70947 8.29403C7.99436 8.4877 7.69639 8.80056 7.86027 9.21771C7.93476 9.42628 8.06885 9.45608 8.51579 9.38159C10.1546 9.11342 11.2421 9.11342 12.3297 9.36669C12.9405 9.51567 13.5514 9.59016 13.6705 9.54547C13.9536 9.42628 13.9834 8.94954 13.7301 8.72607C13.0746 8.18974 10.0801 7.93647 8.70947 8.29403Z" fill="#25337A"/>
<path d="M17.2313 10.1414C17.127 10.1712 17.0376 10.3649 17.0376 10.5586C17.0376 10.8565 17.2462 11.0204 18.2294 11.5418C19.0488 11.959 19.6746 12.4208 20.2407 13.0465C20.6876 13.5233 21.0601 13.9851 21.0601 14.0596C21.0601 14.2384 21.4772 14.3576 21.7305 14.2682C21.8646 14.2086 21.954 13.9851 21.954 13.7468C21.954 13.1061 20.3003 11.4077 19.0041 10.7373C17.8868 10.1563 17.4994 10.0222 17.2313 10.1414Z" fill="#25337A"/>
<path d="M8.47108 10.4095C7.72618 10.6777 7.45801 11.0203 7.66658 11.4077C7.83046 11.7206 7.89005 11.7206 9.0819 11.363C9.64803 11.1991 9.76722 11.214 10.4227 11.5418C10.9442 11.795 11.2421 12.0781 11.4954 12.5251C11.8679 13.1955 12.2403 13.3444 12.5681 12.9422C12.717 12.7634 12.717 12.6293 12.5532 12.2569C11.9125 10.7075 10.0056 9.84339 8.47108 10.4095Z" fill="#25337A"/>
<path d="M16.3225 13.4787C15.7861 13.7468 15.6819 13.866 15.7265 14.1938C15.7712 14.6407 16.0692 14.6705 17.1419 14.3428C18.0656 14.0597 19.0339 14.4768 19.5703 15.4005C19.9874 16.1156 20.3897 16.2646 20.6727 15.8028C20.8068 15.5942 20.7621 15.4005 20.4641 14.8493C19.7043 13.4042 17.7378 12.7636 16.3225 13.4787Z" fill="#25337A"/>
<path d="M7.85996 15.4601C7.42791 15.7879 7.45771 18.0226 7.91955 19.0208C8.85813 21.1065 10.6608 22.2834 12.9402 22.2834C14.8174 22.2685 16.5158 21.33 17.4097 19.7955C17.9758 18.8271 17.8715 18.7377 16.0241 18.6334C13.4468 18.4844 11.4653 17.7842 9.60304 16.354C9.08161 15.9517 8.53038 15.5346 8.39629 15.4452C8.20262 15.2813 8.09833 15.2962 7.85996 15.4601ZM9.39447 17.5458C10.8992 18.6185 12.7465 19.3038 14.8621 19.6167L16.188 19.8104L15.6964 20.2126C15.4282 20.4361 15.0111 20.734 14.7429 20.8681C14.1321 21.181 12.4337 21.3002 11.6292 21.0618C10.631 20.7936 9.58814 19.9146 9.1114 18.9761C8.72405 18.1865 8.41119 17.0393 8.60487 17.0393C8.64956 17.0393 9.00712 17.2628 9.39447 17.5458Z" fill="#25337A"/>
<path d="M30.7436 12.2718C29.7008 12.54 27.7193 13.3892 27.5554 13.6424C27.4363 13.851 27.4512 13.9553 27.6448 14.149C27.8534 14.3724 28.0173 14.3426 29.6859 13.7616C31.6524 13.0912 31.9802 13.0763 33.0231 13.6573C33.3359 13.8361 33.7084 14.1788 33.8573 14.432C34.2894 15.1322 37.4329 23.9221 37.6862 25.1289C38.0437 26.8124 37.7607 28.8087 36.9264 30.4475C36.241 31.7883 33.3955 36.3472 32.9337 36.8239C32.1739 37.6284 31.4141 37.9562 30.2967 37.9413C29.4922 37.9413 28.7771 37.7476 26.2146 36.8686C24.5013 36.2876 22.7582 35.6321 22.3411 35.4235C21.1344 34.8276 20.0617 33.9337 19.3168 32.9355C18.557 31.9075 18.4378 31.6692 17.5737 29.3302C17.0821 28.034 16.8884 27.6765 16.65 27.6467C16.4861 27.6169 16.2627 27.7063 16.1584 27.8254C16.0094 28.0042 16.0839 28.3469 16.5755 29.7026C17.3651 31.8628 17.827 32.7716 18.6166 33.7698C20.0468 35.6023 21.3727 36.3472 26.0507 37.9115C28.8963 38.865 29.4624 39.0139 30.3712 38.999C31.6077 38.999 32.74 38.5372 33.5892 37.7029C34.1851 37.1219 37.5223 31.7288 38.1033 30.4177C38.5205 29.4642 38.9376 27.6169 38.9376 26.6932C38.9376 26.3356 38.8631 25.6205 38.7737 25.0842C38.5652 23.8179 35.1386 14.3575 34.6172 13.6424C33.8573 12.5847 32.0398 11.944 30.7436 12.2718Z" fill="#25337A"/>
<path d="M28.3003 19.5124C27.3021 19.7507 27.019 19.9295 27.019 20.3467C27.019 20.7787 27.3915 20.8234 28.5089 20.5552C29.7454 20.2573 31.0564 20.2424 31.9801 20.5254C32.7697 20.7638 33.2018 20.585 33.1124 20.0785C32.9783 19.3783 30.2072 19.0505 28.3003 19.5124Z" fill="#25337A"/>
<path d="M31.8165 21.9555C31.1461 22.8047 29.7009 22.909 28.807 22.1641C28.2856 21.7171 27.8536 21.7469 27.794 22.2237C27.6301 23.3559 30.0734 24.1455 31.5632 23.4602C32.3677 23.0878 33.0232 22.3727 32.9487 21.9406C32.8742 21.3894 32.2485 21.4043 31.8165 21.9555Z" fill="#25337A"/>
<path d="M23.7564 23.5796C23.667 23.7435 23.5925 23.9818 23.5925 24.1159C23.5925 24.5629 23.1605 25.2035 22.6539 25.5164C22.2815 25.7398 21.8941 25.8292 21.2237 25.8292C20.5086 25.8292 20.2851 25.8888 20.2106 26.0676C20.0766 26.44 20.3596 26.7827 20.9257 26.9019C22.6986 27.2743 24.695 25.7249 24.6056 24.0414C24.5609 23.4753 24.5013 23.3561 24.2331 23.3263C24.0246 23.2965 23.8458 23.3859 23.7564 23.5796Z" fill="#25337A"/>
<path d="M27.7791 27.1103C26.3936 27.6019 25.4252 28.466 24.6803 29.8962C24.3079 30.5815 24.2632 30.8348 24.2632 32.1309C24.2632 33.2632 24.3079 33.6208 24.4867 33.725C24.8293 33.9336 24.8442 33.9336 25.7828 33.1291C26.781 32.2501 28.8965 31.1775 30.2969 30.805C30.8333 30.6709 31.9059 30.5368 32.6806 30.507C33.4553 30.4922 34.1406 30.4624 34.2151 30.4624C34.4684 30.4326 34.2896 29.6281 33.8874 29.047C32.9488 27.6764 31.3398 26.8719 29.552 26.8868C28.9412 26.8868 28.1367 26.9911 27.7791 27.1103ZM31.012 28.1382C31.6378 28.4064 32.6806 29.0917 32.6806 29.2556C32.6806 29.3152 32.1592 29.4344 31.5186 29.5238C29.4477 29.8217 27.213 30.7007 25.5444 31.8926L25.1869 32.1607L25.2614 31.535C25.455 30.1197 26.6469 28.615 27.9579 28.1531C28.7922 27.8701 30.3118 27.8552 31.012 28.1382Z" fill="#25337A"/>
</svg>
