<svg width="40" height="40" viewBox="0 0 40 40" fill="none" xmlns="http://www.w3.org/2000/svg">
<path d="M22.3008 1.08858C21.8987 1.25237 21.7349 1.55018 21.5265 2.57761C21.1989 4.14109 20.5884 4.70692 18.8016 5.09407C17.8932 5.28764 17.4912 5.64501 17.4912 6.24062C17.4912 6.82134 17.9528 7.16381 19.0398 7.41695C19.5907 7.53607 20.2608 7.78921 20.499 7.96789C21.0053 8.32526 21.4222 9.174 21.586 10.127C21.7201 10.9906 22.0625 11.3778 22.6879 11.3927C23.3431 11.4075 23.6707 11.0204 23.894 9.90363C24.2216 8.31037 24.7577 7.77432 26.3807 7.40206C27.4975 7.16381 27.9144 6.82134 27.9144 6.15128C27.9144 5.58544 27.3635 5.16852 26.4701 5.0345C25.5469 4.90049 24.6981 4.424 24.3556 3.84328C24.1918 3.60504 23.9983 3.00943 23.894 2.54783C23.6409 1.29704 23.0751 0.775884 22.3008 1.08858ZM23.4324 4.424C23.9089 5.18341 24.5492 5.63012 25.6809 5.9577L26.6487 6.25551L25.8 6.43419C24.2961 6.76178 23.2835 7.77432 22.9113 9.3378C22.7326 10.1121 22.7177 10.0972 22.4199 9.05488C22.0476 7.69987 21.1691 6.85112 19.695 6.44908L18.8016 6.21084L19.7545 5.94281C20.3353 5.79391 20.9606 5.4961 21.2882 5.21319C21.8541 4.75159 22.5539 3.50081 22.5539 2.93497C22.5539 2.30958 22.7773 2.42871 22.9262 3.14344C23.0155 3.54548 23.2538 4.11131 23.4324 4.424Z" fill="#25337A"/>
<path d="M4.58127 1.19297C4.44726 1.23764 4.3877 1.62479 4.3877 2.3693C4.3877 3.26272 4.43237 3.50096 4.62594 3.57541C5.11732 3.7541 5.35556 3.41162 5.40023 2.44375C5.4598 1.28231 5.22155 0.924944 4.58127 1.19297Z" fill="#25337A"/>
<path d="M28.2122 8.81679C23.4175 12.1671 19.4865 15.0111 19.4567 15.1452C19.3823 15.4727 20.916 17.6169 21.2138 17.6169C21.5116 17.6169 38.7694 5.60049 38.9779 5.24312C39.2012 4.90064 37.6824 2.72666 37.2357 2.72666C37.0719 2.74155 33.0069 5.48136 28.2122 8.81679ZM37.4442 4.46882C37.6973 4.78152 37.7122 4.90064 37.5633 5.04955C37.4591 5.13889 33.7812 7.71491 29.4034 10.7674L21.452 16.3066L21.1095 15.9046C20.916 15.6961 20.7671 15.4727 20.7671 15.4132C20.782 15.2941 36.8635 4.06679 37.0273 4.06679C37.0868 4.06679 37.2655 4.24547 37.4442 4.46882Z" fill="#25337A"/>
<path d="M1.90075 3.87321C1.60294 3.97745 1.6774 4.63262 1.99009 4.8113C2.15388 4.88575 2.55592 4.96021 2.8984 4.96021C3.24088 4.96021 3.64291 4.88575 3.80671 4.8113C4.14918 4.61773 4.17896 3.99234 3.85138 3.85832C3.58335 3.75409 2.16877 3.75409 1.90075 3.87321Z" fill="#25337A"/>
<path d="M5.84682 3.93259C5.44479 4.15595 5.51924 4.64733 5.96595 4.81112C6.45732 5.00469 7.45497 5.00469 7.82723 4.81112C7.97613 4.72178 8.11015 4.5282 8.11015 4.36441C8.11015 4.20062 7.97613 4.00704 7.82723 3.9177C7.45497 3.72413 6.17441 3.72413 5.84682 3.93259Z" fill="#25337A"/>
<path d="M11.2819 3.99235C11.0437 4.15614 10.8799 4.54329 10.7012 5.37715C10.5672 6.00254 10.3587 6.70238 10.2545 6.91084C9.91203 7.58091 9.0484 8.22119 8.14009 8.45943C6.35326 8.93592 6.10012 9.04016 5.90655 9.45708C5.75765 9.78467 5.75765 9.94846 5.93633 10.3654C6.15968 10.9014 6.51705 11.095 7.73805 11.3035C8.57191 11.4524 9.33131 11.8544 9.85247 12.4649C10.3439 13.0159 10.5225 13.4626 10.7906 14.8176C10.9692 15.7557 11.3117 16.1279 11.9967 16.1279C12.7114 16.1279 13.0241 15.711 13.3368 14.3411C13.7984 12.3607 14.4536 11.7055 16.434 11.2737C18.1017 10.9014 18.6526 10.1569 17.9379 9.23373C17.7145 8.9657 17.4018 8.80191 16.7765 8.68279C14.4387 8.22119 13.7388 7.56602 13.3219 5.43671C13.0837 4.26038 12.7263 3.769 12.0711 3.769C11.818 3.769 11.4606 3.87323 11.2819 3.99235ZM12.2647 5.70473C12.5029 6.92574 12.7859 7.53624 13.4261 8.25097C14.0962 8.99548 14.8109 9.36774 16.0766 9.63577C16.6276 9.75489 17.0892 9.87401 17.1338 9.91868C17.1785 9.94846 16.7318 10.0974 16.166 10.2165C13.858 10.7376 12.7859 11.7651 12.3392 13.9093C12.1902 14.5496 12.0413 15.0409 11.9818 15.0112C11.9222 14.9665 11.7882 14.5198 11.684 14.0135C11.2373 11.6757 10.195 10.7525 7.32113 10.1123C6.7404 9.97824 6.93398 9.78467 7.76783 9.65066C9.28664 9.44219 10.6268 8.54878 11.2373 7.34266C11.3862 7.04486 11.5946 6.34501 11.6989 5.79407C11.8031 5.25802 11.9371 4.81131 11.9818 4.81131C12.0413 4.81131 12.1754 5.21335 12.2647 5.70473Z" fill="#25337A"/>
<path d="M4.49193 5.21331C4.43237 5.25798 4.3877 5.76425 4.3877 6.3003C4.3877 7.44685 4.59616 7.77444 5.11732 7.49152C5.38534 7.35751 5.43002 7.19372 5.43002 6.40453C5.43002 5.86848 5.35556 5.39199 5.25133 5.28776C5.05776 5.09419 4.64083 5.04952 4.49193 5.21331Z" fill="#25337A"/>
<path d="M34.7636 9.56114C34.6892 9.72493 34.6147 10.1716 34.6147 10.5439C34.6147 11.3778 34.8232 11.8096 35.2104 11.8096C35.5975 11.8096 35.806 11.3778 35.806 10.5439C35.806 9.71004 35.5975 9.27822 35.2104 9.27822C35.0466 9.27822 34.853 9.41223 34.7636 9.56114Z" fill="#25337A"/>
<path d="M32.1728 12.1967C31.9048 12.4647 31.8899 12.5541 32.0686 12.837C32.2473 13.1199 33.7214 13.239 34.1532 13.0157C34.4957 12.8221 34.5702 12.4201 34.2872 12.1371C34.0192 11.8691 32.4557 11.9138 32.1728 12.1967Z" fill="#25337A"/>
<path d="M36.2228 12.1223C35.8208 12.3456 35.8952 12.837 36.3419 13.0008C36.7588 13.1646 37.5034 13.1944 37.9947 13.0604C38.4563 12.9413 38.6052 12.4052 38.2479 12.1521C37.9352 11.9287 36.5951 11.8989 36.2228 12.1223Z" fill="#25337A"/>
<path d="M16.2254 12.2414L15.0342 12.3307V12.7774V13.2241H18.1611H21.2881L21.3328 12.8072C21.3625 12.5689 21.303 12.3754 21.1839 12.3456C20.8116 12.2265 17.4166 12.1669 16.2254 12.2414Z" fill="#25337A"/>
<path d="M7.2763 13.3732C2.70498 14.5942 0.456551 16.4406 1.11172 18.4508C1.81157 20.5801 5.7426 22.2627 11.9072 23.0668C14.6321 23.439 21.154 23.439 23.745 23.0668C29.5075 22.2776 33.1407 20.8779 34.2724 19.0017C34.6744 18.3465 34.7191 17.3638 34.4064 16.7384C33.8555 15.6812 31.9495 14.4751 29.6564 13.7454C28.4801 13.3732 28.1674 13.4179 28.2418 13.9986C28.2865 14.3559 28.4205 14.4453 29.6862 14.892C32.0537 15.7258 33.5725 16.8426 33.5725 17.7658C33.5725 19.3442 29.7308 21.1161 24.7277 21.8458C16.5976 23.0519 6.63602 21.8755 3.15169 19.3144C0.620344 17.4531 2.60075 15.6663 8.97379 14.0432C9.55451 13.8943 9.61407 13.8348 9.5694 13.4774C9.50984 12.9265 9.00357 12.9116 7.2763 13.3732Z" fill="#25337A"/>
<path d="M34.7487 13.6114C34.5254 14.0432 34.6445 15.5174 34.9274 15.6961C35.2103 15.8747 35.2997 15.8599 35.5677 15.5918C35.8357 15.3238 35.8953 14.0432 35.657 13.5816C35.4486 13.2094 34.9721 13.2243 34.7487 13.6114Z" fill="#25337A"/>
<path d="M8.16994 17.2445C7.87213 17.7061 7.99126 18.2719 8.45286 18.5697C8.91445 18.8675 11.9372 19.3589 14.6621 19.5674C19.3823 19.9247 27.021 19.21 27.4677 18.3613C27.8549 17.6465 27.3933 16.7978 26.6935 16.902C26.4254 16.9318 26.351 17.036 26.351 17.3487C26.3659 17.721 26.2914 17.7657 25.6511 17.9146C21.8839 18.7186 14.811 18.7782 10.7906 18.0486C9.3016 17.7805 9.27182 17.7657 9.36116 17.5125C9.6143 16.8722 8.57198 16.634 8.16994 17.2445Z" fill="#25337A"/>
<path d="M7.61888 22.9326C7.55932 22.9773 7.51465 24.9279 7.51465 27.2359C7.51465 31.2563 7.52954 31.4647 7.79756 31.6137C8.02092 31.7179 8.14004 31.703 8.31872 31.5243C8.52719 31.3307 8.55697 30.7202 8.55697 27.2359C8.55697 24.2876 8.5123 23.1411 8.37828 23.0071C8.18471 22.8135 7.76778 22.7688 7.61888 22.9326Z" fill="#25337A"/>
<path d="M27.2741 22.9326C27.2145 22.9773 27.1698 25.8511 27.1698 29.3057V35.5745L26.7678 35.9765C25.4128 37.272 21.6753 37.9569 16.836 37.8229C13.6197 37.7336 11.6988 37.406 10.0758 36.6615C8.57186 35.9914 8.55697 35.9616 8.55697 34.3684C8.55697 32.8496 8.37828 32.4028 7.84223 32.5666C7.52954 32.6709 7.51465 32.7602 7.51465 34.3535C7.51465 35.8425 7.54443 36.0807 7.82734 36.4381C8.83988 37.7187 11.6541 38.5972 15.7341 38.9099C21.5562 39.3417 27.3038 38.0016 28.0632 36.0063C28.227 35.5894 28.2717 23.4687 28.1228 23.0666C28.0335 22.8284 27.4527 22.739 27.2741 22.9326Z" fill="#25337A"/>
</svg>
