<svg width="40" height="41" viewBox="0 0 40 41" fill="none" xmlns="http://www.w3.org/2000/svg">
<path d="M8.94408 2.73726C8.81043 2.85591 8.70648 3.01906 8.70648 3.09322C8.70648 3.38985 9.21137 3.68649 9.68657 3.68649H10.1915V9.39672V15.1069H7.32545C3.33087 15.1069 2.49928 15.4036 1.50435 17.1982L1.05885 17.9991L1.0143 21.3659C0.954905 25.1925 1.044 25.6078 1.99439 26.0528L2.49928 26.3049L2.39533 31.4515C2.27653 37.2211 2.26168 37.1618 3.31602 37.5919C3.98426 37.8737 4.54855 37.755 5.05344 37.2211C5.40983 36.8503 5.46923 36.613 5.75138 34.3882C5.91473 33.0534 6.06322 31.941 6.09292 31.9113C6.12262 31.8817 6.25627 32.8754 6.40477 34.1213C6.70176 36.7168 6.87996 37.2211 7.62245 37.5771C8.29069 37.9034 9.12228 37.6957 9.59747 37.0876L9.92416 36.6872L9.82021 28.1589C9.73112 20.7578 9.74597 19.5861 9.93901 19.3488C10.0875 19.1412 10.4142 19.0225 11.1418 18.9484C11.721 18.889 12.2407 18.7556 12.4041 18.6072C12.6417 18.3996 13.8593 18.3699 25.6055 18.3699C37.1586 18.3699 38.5545 18.3403 38.7624 18.1326C38.8961 18.014 39 17.8508 39 17.7767C39 17.48 38.4951 17.1834 38.0199 17.1834H37.515V10.4349V3.68649H38.0199C38.4951 3.68649 39 3.38985 39 3.09322C39 3.01906 38.8961 2.85591 38.7624 2.73726C38.5545 2.52961 36.9953 2.49995 23.8532 2.49995C10.7112 2.49995 9.15197 2.52961 8.94408 2.73726ZM36.327 10.4349V17.1834H25.1006H13.8742L14.483 16.4566C14.8097 16.071 15.1958 15.6557 15.3295 15.5371C15.478 15.4184 15.9086 14.9438 16.3096 14.4692C16.9036 13.7573 17.0223 13.5051 17.0223 13.0157C17.0223 12.4521 17.1263 12.3037 18.9528 10.3904C20.9427 8.314 21.2248 7.82455 20.5714 7.61691C20.3041 7.52791 19.9181 7.85421 18.2252 9.5302C16.2947 11.4435 16.1759 11.5473 15.6116 11.5473C14.8988 11.5473 14.5573 11.7698 12.7308 13.4606L11.3794 14.6917V9.18907V3.68649H23.8532H36.327V10.4349ZM15.8344 12.808C15.9235 12.9267 15.9532 13.1047 15.8938 13.2085C15.8344 13.3123 14.884 14.3802 13.7851 15.5667L11.7952 17.747L10.7557 17.8953C10.0281 18.014 9.59747 18.1623 9.34502 18.3996C8.54313 19.1412 8.54313 18.9929 8.70648 27.9513C8.82528 34.0619 8.81043 36.257 8.69163 36.4054C8.43919 36.7168 7.97884 36.6575 7.8155 36.2719C7.74125 36.0939 7.4591 33.8543 7.16211 31.3032C6.87996 28.7373 6.56812 26.5571 6.46417 26.4384C6.27112 26.2011 6.04837 26.1714 5.78108 26.3494C5.66228 26.4236 5.38014 28.2182 5.00889 31.3922C4.6822 34.0916 4.3852 36.3757 4.3258 36.4647C4.1476 36.7613 3.52391 36.6278 3.43482 36.2719C3.39027 36.0939 3.43482 32.5788 3.55361 28.4555C3.67241 24.1395 3.70211 20.8617 3.62786 20.6985C3.55361 20.565 3.37542 20.4464 3.24177 20.4464C2.69233 20.4464 2.61808 20.743 2.61808 22.9381C2.61808 24.5696 2.57353 25.0591 2.43988 25.0146C2.17259 24.9256 2.08349 18.4886 2.33593 17.8953C2.57353 17.302 3.53876 16.4863 4.207 16.3083C4.51885 16.2193 6.13747 16.1452 7.8452 16.1452C9.56777 16.1452 11.0824 16.0858 11.3052 15.9969C11.5279 15.9079 12.5229 15.1069 13.503 14.217C14.4979 13.3123 15.3889 12.5855 15.478 12.5855C15.5671 12.5855 15.7304 12.6894 15.8344 12.808Z" fill="#25337A"/>
<path d="M13.1763 5.37741C13.0427 5.54056 13.0278 5.67404 13.1615 5.89652C13.3248 6.20799 13.3694 6.20799 23.8385 6.20799C35.154 6.20799 34.857 6.22282 34.6194 5.4664C34.5303 5.16976 34.4709 5.16976 23.9424 5.16976C14.9138 5.16976 13.3248 5.19943 13.1763 5.37741Z" fill="#25337A"/>
<path d="M26.9869 7.89867C26.8532 8.06182 26.8384 8.1953 26.972 8.41778C27.1205 8.71442 27.2393 8.72925 30.7439 8.72925C34.6048 8.72925 34.8424 8.68475 34.6197 7.98766C34.5306 7.70586 34.4266 7.69102 30.8478 7.69102C27.8185 7.69102 27.1205 7.73552 26.9869 7.89867Z" fill="#25337A"/>
<path d="M23.7048 12.3632C23.6157 12.4819 23.5712 12.7043 23.6306 12.8823C23.7197 13.179 23.8088 13.179 29.125 13.179C34.4412 13.179 34.5303 13.179 34.6194 12.8823C34.857 12.1556 34.7382 12.1407 29.125 12.1407C24.7294 12.1407 23.8682 12.1704 23.7048 12.3632Z" fill="#25337A"/>
<path d="M18.2105 14.8845C18.1214 15.0031 18.062 15.2108 18.0917 15.3591C18.1363 15.6112 18.5818 15.6261 26.3333 15.6706C34.4858 15.7002 34.5304 15.7002 34.6195 15.4036C34.8571 14.6472 34.9462 14.662 26.3779 14.662C19.5767 14.662 18.3739 14.6917 18.2105 14.8845Z" fill="#25337A"/>
<path d="M4.83065 9.66385C3.96936 10.2423 3.62782 10.8949 3.68722 11.859C3.76147 12.8675 4.20696 13.5498 5.05339 13.9354C5.85528 14.3062 6.41957 14.2914 7.22146 13.8761C8.14214 13.4163 8.58764 12.6302 8.51339 11.5771C8.45399 10.7021 8.14214 10.183 7.36996 9.64902C6.68687 9.18923 5.52859 9.18923 4.83065 9.66385ZM6.79082 10.5093C6.93931 10.5983 7.17691 10.8652 7.31056 11.1174C7.7709 12.0221 7.13236 13.0603 6.09288 13.0603C5.63254 13.0603 5.43949 12.9565 5.09794 12.5857C4.74155 12.1853 4.68215 12.0073 4.7564 11.5623C4.9049 10.6131 5.94438 10.0643 6.79082 10.5093Z" fill="#25337A"/>
<path d="M22.5167 26.1121C21.7148 26.5274 21.3436 27.0169 21.2396 27.7881C21.1951 28.1144 21.0614 28.6039 20.9426 28.856C20.6902 29.4196 20.7941 30.2205 21.1802 30.7248C21.4921 31.1104 21.9227 31.941 21.9227 32.1338C21.9227 32.2673 20.3041 33.0534 20.0368 33.0534C19.9477 33.0534 19.7101 33.1869 19.5022 33.35C19.131 33.6467 19.0864 33.6467 18.6558 33.4242C18.4182 33.3055 18.2103 33.1572 18.2103 33.1127C18.2103 33.0682 18.4182 32.6529 18.6855 32.1783C19.2052 31.2291 19.2201 31.4219 18.6112 29.4196C18.3588 28.5594 17.6757 28.1589 16.5174 28.1589C15.1067 28.1589 14.4681 28.6632 14.1711 30.0129C13.8593 31.3626 13.8741 31.4664 14.3345 32.3563L14.7948 33.2017L13.6514 33.7653C12.6416 34.2399 12.4486 34.4031 12.1664 34.9815C11.8546 35.6045 11.6615 36.8058 11.8546 36.9986C12.0476 37.1766 13.6217 37.5029 15.0324 37.6512C16.1462 37.7699 16.9183 37.7551 18.0024 37.6216C19.814 37.3991 20.0962 37.3991 22.2197 37.6216C23.5413 37.7551 24.3135 37.7551 25.6352 37.6216C27.7587 37.3991 28.0408 37.3991 29.8525 37.6216C31.9908 37.8885 35.6884 37.4436 36.0448 36.8948C36.2082 36.613 36.0448 35.7231 35.6736 34.9815C35.3914 34.3882 35.2132 34.2548 34.2035 33.7653L33.06 33.2017L33.5204 32.3563C33.8322 31.7482 33.951 31.3626 33.9065 31.0511C33.7877 30.354 33.5055 29.3306 33.3422 29.0191C32.7185 27.8623 29.9861 27.8623 29.3476 29.034C28.8279 30.0129 28.7239 31.6444 29.1397 32.2525C29.6743 33.0089 29.6743 33.172 29.1842 33.4242C28.7685 33.6467 28.7239 33.6467 28.3527 33.35C28.1448 33.1869 27.9072 33.0534 27.8181 33.0534C27.5508 33.0534 25.9321 32.2673 25.9321 32.1338C25.9321 31.9558 26.3628 31.1104 26.6004 30.8286C26.7043 30.71 26.8677 30.354 26.9716 30.0425C27.1201 29.5531 27.1201 29.3751 26.9271 28.9302C26.7934 28.6187 26.6598 28.1292 26.6152 27.8178C26.3925 26.1418 24.2393 25.2519 22.5167 26.1121ZM25.0115 27.2097C25.4273 27.4766 25.6352 27.9958 25.6352 28.767C25.6352 29.0785 25.7094 29.3454 25.7836 29.3454C26.0361 29.3454 25.947 29.9091 25.65 30.1909C25.4867 30.3392 25.3233 30.6358 25.2639 30.8435C25.2045 31.0659 24.9818 31.4516 24.759 31.7185C24.0611 32.5639 23.1998 32.2821 22.6504 31.0363C22.5019 30.6951 22.2643 30.3392 22.1455 30.2354C21.893 30.0277 21.8485 29.4048 22.0712 29.2713C22.1603 29.2268 22.2197 28.9153 22.2197 28.589C22.2197 27.6843 22.5316 27.2245 23.3334 26.9427C23.7344 26.8092 24.5957 26.9427 25.0115 27.2097ZM17.2896 29.4344C17.5123 29.5828 17.6163 29.8052 17.6163 30.1612C17.6163 30.443 17.6905 30.8286 17.7796 31.0363C17.9281 31.3477 17.8984 31.4664 17.6311 31.8075C17.4678 32.03 17.3193 32.2821 17.3193 32.386C17.3193 32.4749 17.1559 32.7123 16.948 32.9051C16.6362 33.2017 16.5322 33.2314 16.2056 33.0831C15.9828 32.9792 15.7155 32.6678 15.5819 32.3415C15.4631 32.0448 15.2552 31.674 15.1215 31.5257C14.9433 31.3329 14.9285 31.2291 15.0621 31.0956C15.1661 30.9918 15.2403 30.6655 15.2403 30.354C15.2403 29.6124 15.6561 29.1971 16.3986 29.1971C16.7104 29.1971 17.1114 29.301 17.2896 29.4344ZM32.2284 29.5383C32.6442 29.9535 32.867 31.3477 32.57 31.7037C32.466 31.8372 32.273 32.1783 32.1393 32.4898C31.8127 33.1869 31.3672 33.3352 30.892 32.8902C30.6989 32.7123 30.491 32.4156 30.4465 32.2525C30.3871 32.0745 30.2683 31.8372 30.1495 31.7185C29.8376 31.3626 30.1049 29.8201 30.5356 29.4641C31.0108 29.0785 31.8127 29.123 32.2284 29.5383ZM23.3334 33.2314C23.6304 33.3649 23.868 33.3649 24.4026 33.2314C25.0115 33.0682 25.1451 33.0831 25.843 33.4093C26.2588 33.6022 26.9122 33.8988 27.2983 34.0768C27.8626 34.3141 28.0705 34.5069 28.323 35.026C28.5012 35.3968 28.6051 35.7973 28.5606 35.9159C28.516 36.0494 28.0854 36.2126 27.3874 36.3312C25.947 36.5982 21.2545 36.5685 20.1407 36.2867C19.3389 36.0791 19.324 36.0642 19.3537 35.5896C19.3834 35.0112 19.7992 34.3734 20.2892 34.1658C20.4823 34.0768 21.0763 33.8098 21.6109 33.5428C22.7394 33.0089 22.8137 32.9941 23.3334 33.2314ZM18.0321 34.3734C18.2994 34.5217 18.3588 34.6404 18.2994 34.8777C18.24 35.0557 18.1657 35.5155 18.1063 35.9011L18.0172 36.613H16.4431C15.5819 36.5982 14.4384 36.5092 13.9038 36.4202C13.0129 36.2422 12.9386 36.1977 12.9832 35.8714C13.0277 35.4858 13.5474 34.8332 13.8147 34.8184C13.9038 34.8184 14.2751 34.67 14.6463 34.4921C15.1809 34.2251 15.5522 34.1658 16.5025 34.1658C17.1559 34.1806 17.8539 34.2696 18.0321 34.3734ZM33.4313 34.5959C34.3223 34.9667 34.7826 35.3968 34.8717 35.9456C34.9163 36.1977 34.7826 36.257 33.951 36.4202C33.4164 36.524 32.273 36.5982 31.3969 36.613C29.9564 36.613 29.7931 36.5833 29.7931 36.346C29.7931 36.1977 29.704 35.7379 29.6 35.3226L29.3921 34.5662L29.8376 34.3586C30.5504 34.0175 32.3621 34.1361 33.4313 34.5959Z" fill="#25337A"/>
</svg>
