<svg width="40" height="41" viewBox="0 0 40 41" fill="none" xmlns="http://www.w3.org/2000/svg">
<path d="M9.23208 1.81172C8.13364 2.3461 7.8813 3.65234 8.68286 4.61719C8.99458 4.97344 9.45473 5.18125 11.236 5.73047C12.4383 6.10156 13.5219 6.44297 13.6407 6.4875C13.7594 6.53203 12.8391 6.88828 11.6071 7.28906C10.3602 7.675 9.1727 8.10547 8.96489 8.23906C8.04458 8.84766 7.92583 10.2133 8.72739 11.0148C9.26177 11.5492 9.79614 11.668 10.6274 11.4898C11.1024 11.3711 11.3102 11.3859 11.3547 11.5047C11.3844 11.5938 11.3993 13.8055 11.3844 16.4031L11.3399 21.1531L10.8946 21.2719C9.8852 21.5242 9.69223 21.925 8.26723 26.7641C7.1688 30.5047 6.96098 31.3953 7.00552 32.0484C7.10942 33.4437 7.31723 33.5773 12.6461 35.418L15.125 36.2938V37.6594C15.125 38.7133 15.1844 39.0844 15.3625 39.2625C15.5555 39.4703 16.2086 39.5 20.1719 39.5C24.1352 39.5 24.7883 39.4703 24.9813 39.2625C25.1594 39.0844 25.2188 38.7133 25.2188 37.6594V36.2938L27.7125 35.418C33.0266 33.5773 33.2344 33.4437 33.3383 32.0484C33.3829 31.3953 33.175 30.5047 32.0766 26.7641C30.6516 21.925 30.4586 21.5242 29.4493 21.2719L29.004 21.1531V16.2547C29.004 12.0391 29.0336 11.3711 29.2266 11.4156C29.3454 11.4453 29.7461 11.5047 30.1172 11.5492C30.9782 11.6383 31.7204 11.1781 32.0321 10.3469C32.225 9.85703 32.225 9.69375 32.0321 9.17422C31.9133 8.84766 31.6461 8.44687 31.4383 8.29844C31.2305 8.13516 30.0282 7.68984 28.7665 7.28906C27.5047 6.90313 26.5844 6.53203 26.7032 6.4875C26.8219 6.44297 27.8907 6.11641 29.093 5.74531C30.7258 5.22578 31.3493 4.9586 31.6461 4.64688C32.6555 3.59297 32.0766 1.85625 30.6071 1.55938C30.325 1.5 28.6774 1.94531 25.1891 3.04375L20.1719 4.60234L15.1993 3.05859C12.4532 2.19766 10.1375 1.5 10.0336 1.5C9.92973 1.5 9.57348 1.63359 9.23208 1.81172ZM20.4688 5.95312C26.9407 7.98672 30.5922 9.18906 30.7852 9.38203C31.0969 9.67891 31.0079 10.0055 30.5477 10.3023C30.2657 10.4805 9.79614 4.1125 9.52895 3.75625C9.27661 3.42969 9.29145 3.32578 9.6477 2.96953C9.81098 2.80625 10.0485 2.70234 10.1969 2.74688C10.3305 2.79141 14.9618 4.24609 20.4688 5.95312ZM30.711 2.98438C31.379 3.65234 31.0079 3.88984 27.5047 4.97344L24.3727 5.95312L23.3485 5.59687C22.636 5.34453 22.3985 5.21094 22.5766 5.13672C22.8883 5.01797 30.1469 2.71719 30.3102 2.70234C30.3696 2.6875 30.5477 2.82109 30.711 2.98438ZM17.9454 7.88281C17.9454 7.92734 16.1344 8.52109 13.9375 9.21875L9.91489 10.4656L9.61802 10.1539C9.39536 9.94609 9.33598 9.75313 9.4102 9.53047C9.48442 9.27813 9.98911 9.07031 12.1266 8.40234C13.5665 7.94219 15.0211 7.48203 15.3329 7.37812C15.8524 7.21484 16.0602 7.22969 16.936 7.49688C17.4852 7.675 17.9454 7.83828 17.9454 7.88281ZM19.5782 14.043C19.5782 18.882 19.5633 19.3125 19.3258 19.3125C19.1922 19.3125 18.6875 19.4164 18.2125 19.55C17.218 19.832 16.1641 20.6781 15.7336 21.5242C15.0211 22.9195 14.9766 25.1461 15.6149 26.9273C15.986 27.9516 16.8915 29.3023 17.3665 29.5695C17.6188 29.6883 17.6485 29.8813 17.6485 31.0391C17.6485 31.8852 17.5891 32.375 17.4852 32.375C17.411 32.375 16.0602 31.9297 14.5165 31.3805C12.2602 30.5938 11.6961 30.3562 11.7555 30.1633C11.8 30.0297 12.2454 28.4711 12.75 26.7047C13.7891 23.1273 13.804 22.8008 13.0469 21.925L12.6016 21.4203V16.1656V10.8961L15.9118 9.85703C17.7227 9.27813 19.2961 8.78828 19.4 8.78828C19.5336 8.77344 19.5782 9.91641 19.5782 14.043ZM24.0907 9.75313C25.8125 10.2875 27.3415 10.7477 27.4899 10.7922C27.7274 10.8664 27.7422 11.2523 27.7422 16.1508V21.4203L27.2969 21.925C26.5399 22.8008 26.5547 23.1422 27.5938 26.7195C28.0985 28.4859 28.5586 30.0297 28.5883 30.1633C28.6477 30.3414 28.0688 30.5938 25.8274 31.3805C24.2688 31.9297 22.9329 32.375 22.8438 32.375C22.7547 32.375 22.6954 31.8703 22.6954 31.0391C22.6954 29.8813 22.725 29.6883 22.9774 29.5695C23.4524 29.3023 24.3579 27.9516 24.729 26.9273C25.3672 25.1461 25.3227 22.9195 24.6102 21.5242C24.1797 20.6781 23.1258 19.832 22.1313 19.55C21.6563 19.4164 21.1516 19.3125 21.018 19.3125C20.7805 19.3125 20.7657 18.882 20.7657 14.043C20.7657 11.1484 20.8102 8.77344 20.8547 8.77344C20.9141 8.77344 22.3688 9.20391 24.0907 9.75313ZM21.6711 20.6484C22.5469 20.9008 23.1852 21.4203 23.586 22.207C23.8829 22.8008 23.9422 23.157 23.9422 24.2109C23.9571 26.3484 23.2594 27.8773 21.8196 28.8867C21.2704 29.2727 21.0625 29.332 20.1719 29.332C19.2813 29.332 19.0735 29.2727 18.5243 28.8867C17.0844 27.8773 16.3868 26.3484 16.4016 24.2109C16.4016 21.6578 17.5446 20.5148 20.0977 20.5C20.6766 20.5 21.3743 20.5742 21.6711 20.6484ZM12.2305 22.8898C12.468 23.3352 12.4383 23.4539 11.429 26.957C10.85 28.9461 10.375 30.6828 10.375 30.8016C10.375 31.1578 10.85 31.3805 13.6704 32.375L16.2829 33.2953L15.8524 33.9781C15.6149 34.3492 15.4219 34.75 15.4219 34.8539C15.4219 34.9578 15.3774 35.0469 15.318 35.0469C14.8875 35.032 8.48989 32.6422 8.34145 32.4344C8.23755 32.2859 8.14848 32.0188 8.14848 31.8406C8.14848 31.2023 10.6719 22.8008 10.9243 22.6078C11.3993 22.2664 11.9782 22.3852 12.2305 22.8898ZM29.4196 22.6078C29.6719 22.8008 32.1954 31.2023 32.1954 31.8406C32.1954 32.0188 32.1063 32.2859 32.0024 32.4344C31.854 32.6422 25.4563 35.0469 25.0407 35.0469C24.9665 35.0469 24.9219 34.9578 24.9219 34.8539C24.9219 34.75 24.729 34.3492 24.4915 33.9781L24.061 33.2953L26.0797 32.5828C29.0188 31.5734 29.7016 31.2914 29.8649 31.0094C29.9836 30.8313 29.7461 29.8367 28.9446 27.0609C27.9055 23.4539 27.8758 23.3352 28.1133 22.8898C28.3657 22.3852 28.9446 22.2664 29.4196 22.6078ZM21.5079 31.2172V31.9297H20.1719H18.836V31.2172V30.5195H20.1719H21.5079V31.2172ZM21.7157 33.2805C22.0274 33.3695 22.5766 33.7109 22.9329 34.0375C23.7493 34.7797 24.061 35.7445 24.0016 37.2289L23.9571 38.2383H20.1719H16.3868L16.3422 37.2289C16.2532 35.2844 17.0547 33.8445 18.4797 33.3398C19.1774 33.0875 20.9141 33.0578 21.7157 33.2805Z" fill="#25337A"/>
</svg>
