<svg width="24" height="24" viewBox="0 0 24 24" fill="none" xmlns="http://www.w3.org/2000/svg">
<g clip-path="url(#clip0_55_1182)">
<path fill-rule="evenodd" clip-rule="evenodd" d="M12.0205 1.73999C6.05945 1.73999 1.73999 6.60951 1.73999 12.0154C1.73999 13.7417 2.24273 15.5183 3.12509 17.1418C3.28925 17.41 3.30977 17.7481 3.19691 18.0676L2.50949 20.3693C2.35559 20.9242 2.82755 21.3342 3.35081 21.1698L5.42333 20.5543C5.98763 20.3693 6.42881 20.6046 6.95207 20.9242C8.45003 21.8068 10.3174 22.26 12 22.26C17.089 22.26 22.26 18.3245 22.26 11.9846C22.26 6.51703 17.8482 1.73999 12.0205 1.73999Z" stroke="#111B21" stroke-width="1.5" stroke-linecap="round" stroke-linejoin="round"/>
<path fill-rule="evenodd" clip-rule="evenodd" d="M7.67554 8.57882C7.82738 8.32742 8.66395 7.41301 9.26093 7.44061C9.43938 7.4554 9.59713 7.56336 9.7253 7.68856C10.0196 7.97595 10.8621 9.06289 10.9099 9.29161C11.0262 9.85258 10.3578 10.176 10.5624 10.7414C11.0839 12.0176 11.9826 12.9162 13.2594 13.4373C13.8243 13.6418 14.1477 12.9734 14.7087 13.0902C14.937 13.138 16.0244 13.9805 16.3118 14.2748C16.4366 14.4024 16.545 14.5607 16.5598 14.7391C16.582 15.3676 15.6108 16.216 15.4215 16.3244C14.9749 16.6439 14.3922 16.6384 13.6819 16.3082C11.6996 15.4835 8.53183 12.3755 7.69181 10.3184C7.3704 9.61203 7.34821 9.02543 7.67554 8.57882Z" fill="#111B21"/>
</g>
<defs>
<clipPath id="clip0_55_1182">
<rect width="24" height="24" fill="white"/>
</clipPath>
</defs>
</svg>
