<svg width="75" height="83" viewBox="0 0 75 83" fill="none" xmlns="http://www.w3.org/2000/svg">
<path d="M7.76062 13.6923C7.76062 13.6923 7.75201 12.2564 7.76923 11.4359C6.33173 7.74359 1 7.74359 1 4.05129C2.63942 4.05129 4.48871 4.15304 5.92147 4.66667C7.26408 5.14798 7.75201 6.3077 7.75201 6.3077C7.75201 6.3077 10.4343 5.69231 12.0753 6.51282C12.6719 7.20465 12.4856 9.38462 12.4856 9.38462C12.554 9.93162 13.3061 10.2051 14.742 10.2051C17.6138 10.2051 17.8189 9.38462 17.8189 8.56411C17.8189 7.74359 15.6993 6.78632 15.7676 5.89744C15.836 5.00855 16.9163 3.92821 19.0497 4.25641C21.183 4.58462 22.0582 6.10257 22.3317 6.51282C22.6052 7.33334 21.1026 7.33333 21.1026 8.56411C22.3317 10 25.0684 11.3675 25.2051 11.641H31.5641C32.2479 10.9573 33.4103 9.38462 32.5897 8.56411C31.1128 7.25128 27.8702 8.15385 27.8702 8.15385C27.8702 8.15385 27.9949 5.69231 30.9487 5.69231C32.5897 5.69231 33.6138 6.30769 34.4343 6.30769C35.2548 6.30769 37.9231 2 37.9231 2C37.9231 2 39.8529 6.19015 40.7933 6.30769C41.7336 6.42524 43.8702 5.48718 45.7163 5.69231C47.9744 6.30769 47.7676 8.15385 47.7676 8.15385C47.7676 8.15385 44.0737 6.71795 43.0497 8.56411C42.3492 9.827 42.4343 11.0256 44.0753 11.641C46.5369 11.641 48.8633 11.641 49.6154 11.641C49.6154 11.641 52.8958 10 53.7179 8.56411C52.2804 7.74359 52.4856 5.69231 52.4856 5.69231C52.8958 5.21368 53.7179 4.05128 55.359 4.05128C57.4102 4.05128 59.2548 5.07692 58.6394 6.30769C58.1471 7.29231 56.7822 7.38915 56.5881 8.56411C57.6138 10.4103 62.1282 10.2051 62.1282 8.56411C62.1282 6.92308 63.359 5.96581 63.9743 5.69231C63.9743 5.69231 65.8659 6.61857 67.0513 6.30769C68.3127 5.97686 67.5264 5.32874 68.2804 4.66667C69.7256 3.39775 71.5625 3.84615 73.6138 3.84615C71.9728 7.94872 67.0513 8.56411 67.0513 11.4359C67.0513 11.5749 67.0919 12.3717 67.1055 13.6923M7.76062 13.6923H67.1055M7.76062 13.6923L7.75201 15.9487M67.1055 13.6923C67.112 14.3285 67.1175 15.0859 67.1222 15.9487M67.1222 15.9487C67.177 26.1581 67.1055 51.1356 67.0513 64.9744L37.9231 82L7.5641 65.1795L7.75201 15.9487M67.1222 15.9487H7.75201M37.9231 7.74359C36.6203 7.68695 35.2616 8.71137 35.4615 10C35.6387 11.1417 36.7687 11.6881 37.9231 11.641C39.0118 11.5966 39.8028 11.0763 39.9728 10C40.1671 8.76907 39.1681 7.79772 37.9231 7.74359ZM10.4359 18.4103V62.9231L37.9231 78.5128L63.1538 62.9231V18.4103H10.4359Z" stroke="#25337A"/>
<path fill-rule="evenodd" clip-rule="evenodd" d="M12.6905 24.7171L10.229 21.9863V63.9988L37.7162 79.3334L55.9726 68.6202L51.4598 63.9988L53.3059 62.1083L49.6136 58.1171L46.947 60.8479L40.9982 54.9661L43.0495 52.8655L39.1521 48.6643L36.4854 51.3951L30.7418 45.5133L32.7931 43.2026L29.1008 39.2115L26.6393 41.7322L21.3059 36.0605L23.1521 34.17L19.0495 29.7586L16.7931 32.0693L11.2546 26.3976L12.6905 24.7171ZM25.4085 52.0253L23.5623 48.0341L21.9213 52.0253H16.7931L20.6905 55.3863L19.4598 59.1674L23.5623 56.8567L27.6649 59.1674L26.4341 55.3863L29.9213 52.0253H25.4085ZM34.4341 62.7385L35.87 59.1674L37.7162 62.7385H42.0239L39.3572 65.8894L42.0239 68.8303L37.7162 68.4102L35.87 71.7712L34.4341 68.4102L29.9213 68.8303L32.3829 65.8894L29.9213 62.7385H34.4341Z" fill="#25337A"/>
<path d="M51.4598 63.9987L55.9726 68.6201L63.9726 63.9987V61.478L59.4598 56.6465L57.4085 58.7472L53.5111 54.756L55.3572 52.8654L49.6136 47.1937L47.1521 49.7145L42.8444 45.5132L45.1008 43.2025L39.3572 37.3208L36.6905 40.0516L32.9982 36.4805L34.6393 34.8L29.3059 29.1283L27.2546 31.229L23.3572 27.4478L25.2034 25.5573L18.8444 19.0453L16.9982 20.9359L14.3316 18.2051H10.229V22.1963L12.6905 24.717L11.0495 26.3975L16.7931 32.2793L19.0495 29.9686L23.1521 34.1698L21.1008 36.2705L26.6393 41.9421L29.1008 39.4214L32.7931 43.2025L30.5367 45.5132L36.4854 51.605L39.1521 48.8742L43.0495 52.8654L40.9982 54.966L46.947 61.0578L49.6136 58.327L53.3059 62.1082L51.4598 63.9987Z" fill="#E2DC02"/>
<path fill-rule="evenodd" clip-rule="evenodd" d="M16.9872 20.9227L14.3315 18.2051H63.9726V61.478L59.4783 56.8789L57.4355 58.9694L53.3498 54.7884L55.1884 52.907L49.6727 47.2627L47.017 49.9803L42.727 45.5903L44.9742 43.2908L39.2542 37.4375L36.5985 40.1551L32.9214 36.3922L34.5557 34.7199L29.2443 29.2846L27.2014 31.3751L23.32 27.4032L25.1586 25.5217L18.8258 19.0413L16.9872 20.9227ZM40.7226 20.8133C41.9535 20.3932 42.7057 21.8636 42.774 23.124C42.7137 23.1034 42.6525 23.0819 42.5912 23.0603L42.5911 23.0602C42.0275 22.8619 41.4514 22.659 41.338 23.124C41.133 23.9643 41.2696 25.4347 41.7482 26.6951L43.5945 26.9051V27.9554H45.4407L44.4151 29.6359V31.1064H42.774L40.928 31.9466L41.133 29.846L39.9022 29.6359V28.3756C39.9022 28.3756 35.5945 27.5353 35.5944 27.9554C35.5943 28.1444 35.6358 28.2908 35.6814 28.4521C35.7373 28.6494 35.7995 28.869 35.7995 29.2158C34.4867 29.5519 33.5433 28.4456 33.133 27.7454C33.0646 27.3252 33.2561 26.443 34.5689 26.2749C35.3021 26.1811 36.8798 26.753 38.1658 27.2192C39.1825 27.5878 40.0168 27.8902 40.1074 27.7454C40.3125 27.4173 37.4405 25.4347 36.62 25.4347C35.7994 25.4347 33.5435 23.5441 33.133 23.124C32.7225 22.7039 32.7227 20.6032 32.9279 20.3932C33.133 20.1831 35.1241 20.3624 36.0048 20.8133C36.8253 21.2334 38.2614 23.3341 38.2612 23.7542C38.261 24.1743 40.7229 26.6951 40.928 26.485C41.133 26.2749 39.4918 23.124 39.4918 23.124C39.0815 22.0737 39.2866 21.4435 40.7226 20.8133ZM57.4086 34.5899C57.3403 33.3296 56.5881 31.8591 55.3572 32.2793C53.9212 32.9095 53.7162 33.5396 54.1264 34.5899C54.1264 34.5899 55.7676 37.7409 55.5626 37.9509C55.3576 38.161 52.8956 35.6403 52.8958 35.2201C52.8961 34.8 51.4599 32.6994 50.6394 32.2793C49.7588 31.8283 47.7676 31.6491 47.5625 31.8591C47.3574 32.0691 47.3572 34.1698 47.7677 34.5899C48.1782 35.0101 50.4341 36.9006 51.2546 36.9006C52.0751 36.9006 54.9471 38.8832 54.742 39.2113C54.6514 39.3562 53.8171 39.0537 52.8004 38.6852C51.5145 38.219 49.9367 37.647 49.2035 37.7409C47.8907 37.9089 47.6992 38.7912 47.7676 39.2113C48.1779 39.9115 49.1213 41.0179 50.4341 40.6818C50.4341 40.335 50.3719 40.1154 50.316 39.918C50.2704 39.7568 50.2289 39.6103 50.229 39.4214C50.2292 39.0013 54.5369 39.8415 54.5369 39.8415V41.1019L55.7676 41.312L55.5626 43.4126L57.4086 42.5723H59.0497V41.1019L60.0753 39.4214H58.2292V38.3711L56.3828 38.161C55.9042 36.9006 55.7676 35.4302 55.9726 34.5899C56.086 34.125 56.6622 34.3278 57.2257 34.5262C57.287 34.5478 57.3482 34.5693 57.4086 34.5899Z" fill="#D9000A"/>
</svg>
